<mxfile host="65bd71144e">
    <diagram id="aQvwjK2VA4pr6lu0I1Fn" name="Page-1">
        <mxGraphModel dx="2564" dy="1633" grid="1" gridSize="10" guides="1" tooltips="1" connect="1" arrows="1" fold="1" page="0" pageScale="1" pageWidth="850" pageHeight="1100" math="0" shadow="0">
            <root>
                <mxCell id="0"/>
                <mxCell id="1" parent="0"/>
                <mxCell id="Wvpoc2jIu2e2FaNdJkdb-1" value="&lt;div&gt;stmtlist&lt;/div&gt;" style="text;html=1;align=center;verticalAlign=middle;resizable=0;points=[];autosize=1;strokeColor=none;fillColor=none;" parent="1" vertex="1">
                    <mxGeometry x="-285" y="10" width="50" height="20" as="geometry"/>
                </mxCell>
                <mxCell id="Wvpoc2jIu2e2FaNdJkdb-2" value="print" style="text;html=1;align=center;verticalAlign=middle;resizable=0;points=[];autosize=1;strokeColor=none;fillColor=none;" parent="1" vertex="1">
                    <mxGeometry x="-280" y="90" width="40" height="20" as="geometry"/>
                </mxCell>
                <mxCell id="Wvpoc2jIu2e2FaNdJkdb-3" value="read" style="text;html=1;align=center;verticalAlign=middle;resizable=0;points=[];autosize=1;strokeColor=none;fillColor=none;" parent="1" vertex="1">
                    <mxGeometry x="-160" y="90" width="40" height="20" as="geometry"/>
                </mxCell>
                <mxCell id="Wvpoc2jIu2e2FaNdJkdb-4" value="var" style="text;html=1;align=center;verticalAlign=middle;resizable=0;points=[];autosize=1;strokeColor=none;fillColor=none;" parent="1" vertex="1">
                    <mxGeometry x="-40" y="90" width="30" height="20" as="geometry"/>
                </mxCell>
                <mxCell id="Wvpoc2jIu2e2FaNdJkdb-5" value="var" style="text;html=1;align=center;verticalAlign=middle;resizable=0;points=[];autosize=1;strokeColor=none;fillColor=none;" parent="1" vertex="1">
                    <mxGeometry x="80" y="90" width="30" height="20" as="geometry"/>
                </mxCell>
                <mxCell id="Wvpoc2jIu2e2FaNdJkdb-6" value="var" style="text;html=1;align=center;verticalAlign=middle;resizable=0;points=[];autosize=1;strokeColor=none;fillColor=none;" parent="1" vertex="1">
                    <mxGeometry x="200" y="90" width="30" height="20" as="geometry"/>
                </mxCell>
                <mxCell id="Wvpoc2jIu2e2FaNdJkdb-7" value="print" style="text;html=1;align=center;verticalAlign=middle;resizable=0;points=[];autosize=1;strokeColor=none;fillColor=none;" parent="1" vertex="1">
                    <mxGeometry x="320" y="90" width="40" height="20" as="geometry"/>
                </mxCell>
                <mxCell id="Wvpoc2jIu2e2FaNdJkdb-8" value="print" style="text;html=1;align=center;verticalAlign=middle;resizable=0;points=[];autosize=1;strokeColor=none;fillColor=none;" parent="1" vertex="1">
                    <mxGeometry x="440" y="90" width="40" height="20" as="geometry"/>
                </mxCell>
                <mxCell id="Wvpoc2jIu2e2FaNdJkdb-9" value="for" style="text;html=1;align=center;verticalAlign=middle;resizable=0;points=[];autosize=1;strokeColor=none;fillColor=none;" parent="1" vertex="1">
                    <mxGeometry x="560" y="90" width="30" height="20" as="geometry"/>
                </mxCell>
                <mxCell id="Wvpoc2jIu2e2FaNdJkdb-10" value="assert" style="text;html=1;align=center;verticalAlign=middle;resizable=0;points=[];autosize=1;strokeColor=none;fillColor=none;" parent="1" vertex="1">
                    <mxGeometry x="1720" y="90" width="50" height="20" as="geometry"/>
                </mxCell>
                <mxCell id="Wvpoc2jIu2e2FaNdJkdb-11" value="" style="endArrow=classic;html=1;rounded=0;" parent="1" source="Wvpoc2jIu2e2FaNdJkdb-1" target="Wvpoc2jIu2e2FaNdJkdb-2" edge="1">
                    <mxGeometry width="50" height="50" relative="1" as="geometry">
                        <mxPoint x="400" y="600" as="sourcePoint"/>
                        <mxPoint x="450" y="550" as="targetPoint"/>
                    </mxGeometry>
                </mxCell>
                <mxCell id="Wvpoc2jIu2e2FaNdJkdb-12" value="" style="endArrow=classic;html=1;rounded=0;" parent="1" source="Wvpoc2jIu2e2FaNdJkdb-1" target="Wvpoc2jIu2e2FaNdJkdb-3" edge="1">
                    <mxGeometry width="50" height="50" relative="1" as="geometry">
                        <mxPoint x="270" y="52.75229357798162" as="sourcePoint"/>
                        <mxPoint x="-230" y="107.79816513761466" as="targetPoint"/>
                    </mxGeometry>
                </mxCell>
                <mxCell id="Wvpoc2jIu2e2FaNdJkdb-13" value="" style="endArrow=classic;html=1;rounded=0;" parent="1" source="Wvpoc2jIu2e2FaNdJkdb-1" target="Wvpoc2jIu2e2FaNdJkdb-4" edge="1">
                    <mxGeometry width="50" height="50" relative="1" as="geometry">
                        <mxPoint x="270" y="53.529411764705856" as="sourcePoint"/>
                        <mxPoint x="-110" y="107.17647058823536" as="targetPoint"/>
                    </mxGeometry>
                </mxCell>
                <mxCell id="Wvpoc2jIu2e2FaNdJkdb-14" value="" style="endArrow=classic;html=1;rounded=0;" parent="1" source="Wvpoc2jIu2e2FaNdJkdb-1" target="Wvpoc2jIu2e2FaNdJkdb-5" edge="1">
                    <mxGeometry width="50" height="50" relative="1" as="geometry">
                        <mxPoint x="280" y="63.529411764705856" as="sourcePoint"/>
                        <mxPoint x="-100" y="117.17647058823536" as="targetPoint"/>
                    </mxGeometry>
                </mxCell>
                <mxCell id="Wvpoc2jIu2e2FaNdJkdb-15" value="" style="endArrow=classic;html=1;rounded=0;" parent="1" source="Wvpoc2jIu2e2FaNdJkdb-1" target="Wvpoc2jIu2e2FaNdJkdb-6" edge="1">
                    <mxGeometry width="50" height="50" relative="1" as="geometry">
                        <mxPoint x="290" y="73.52941176470586" as="sourcePoint"/>
                        <mxPoint x="-90" y="127.17647058823536" as="targetPoint"/>
                    </mxGeometry>
                </mxCell>
                <mxCell id="Wvpoc2jIu2e2FaNdJkdb-16" value="" style="endArrow=classic;html=1;rounded=0;" parent="1" source="Wvpoc2jIu2e2FaNdJkdb-1" target="Wvpoc2jIu2e2FaNdJkdb-7" edge="1">
                    <mxGeometry width="50" height="50" relative="1" as="geometry">
                        <mxPoint x="300" y="83.52941176470586" as="sourcePoint"/>
                        <mxPoint x="-80" y="137.17647058823536" as="targetPoint"/>
                    </mxGeometry>
                </mxCell>
                <mxCell id="Wvpoc2jIu2e2FaNdJkdb-17" value="" style="endArrow=classic;html=1;rounded=0;" parent="1" source="Wvpoc2jIu2e2FaNdJkdb-1" target="Wvpoc2jIu2e2FaNdJkdb-8" edge="1">
                    <mxGeometry width="50" height="50" relative="1" as="geometry">
                        <mxPoint x="310" y="93.52941176470586" as="sourcePoint"/>
                        <mxPoint x="-70" y="147.17647058823536" as="targetPoint"/>
                    </mxGeometry>
                </mxCell>
                <mxCell id="Wvpoc2jIu2e2FaNdJkdb-18" value="" style="endArrow=classic;html=1;rounded=0;" parent="1" source="Wvpoc2jIu2e2FaNdJkdb-1" target="Wvpoc2jIu2e2FaNdJkdb-9" edge="1">
                    <mxGeometry width="50" height="50" relative="1" as="geometry">
                        <mxPoint x="320" y="103.52941176470586" as="sourcePoint"/>
                        <mxPoint x="-60" y="157.17647058823536" as="targetPoint"/>
                    </mxGeometry>
                </mxCell>
                <mxCell id="Wvpoc2jIu2e2FaNdJkdb-19" value="" style="endArrow=classic;html=1;rounded=0;" parent="1" source="Wvpoc2jIu2e2FaNdJkdb-1" target="Wvpoc2jIu2e2FaNdJkdb-10" edge="1">
                    <mxGeometry width="50" height="50" relative="1" as="geometry">
                        <mxPoint x="330" y="113.52941176470586" as="sourcePoint"/>
                        <mxPoint x="-50" y="167.17647058823536" as="targetPoint"/>
                    </mxGeometry>
                </mxCell>
                <mxCell id="Wvpoc2jIu2e2FaNdJkdb-20" value="&quot;How many: &quot;;" style="text;html=1;align=center;verticalAlign=middle;resizable=0;points=[];autosize=1;strokeColor=none;fillColor=none;" parent="1" vertex="1">
                    <mxGeometry x="-305" y="170" width="90" height="20" as="geometry"/>
                </mxCell>
                <mxCell id="Wvpoc2jIu2e2FaNdJkdb-21" value="" style="endArrow=classic;html=1;rounded=0;" parent="1" source="Wvpoc2jIu2e2FaNdJkdb-2" target="Wvpoc2jIu2e2FaNdJkdb-20" edge="1">
                    <mxGeometry width="50" height="50" relative="1" as="geometry">
                        <mxPoint x="340" y="123.52941176470586" as="sourcePoint"/>
                        <mxPoint x="-40" y="177.17647058823536" as="targetPoint"/>
                    </mxGeometry>
                </mxCell>
                <mxCell id="Wvpoc2jIu2e2FaNdJkdb-23" value="" style="endArrow=classic;html=1;rounded=0;" parent="1" source="Wvpoc2jIu2e2FaNdJkdb-3" target="Wvpoc2jIu2e2FaNdJkdb-24" edge="1">
                    <mxGeometry width="50" height="50" relative="1" as="geometry">
                        <mxPoint x="350" y="133.52941176470586" as="sourcePoint"/>
                        <mxPoint x="-140" y="180" as="targetPoint"/>
                    </mxGeometry>
                </mxCell>
                <mxCell id="Wvpoc2jIu2e2FaNdJkdb-24" value="count;" style="text;html=1;align=center;verticalAlign=middle;resizable=0;points=[];autosize=1;strokeColor=none;fillColor=none;" parent="1" vertex="1">
                    <mxGeometry x="-165" y="170" width="50" height="20" as="geometry"/>
                </mxCell>
                <mxCell id="Wvpoc2jIu2e2FaNdJkdb-27" value="&lt;div&gt;first: int := 0;&lt;/div&gt;" style="text;html=1;align=center;verticalAlign=middle;resizable=0;points=[];autosize=1;strokeColor=none;fillColor=none;" parent="1" vertex="1">
                    <mxGeometry x="-65" y="170" width="80" height="20" as="geometry"/>
                </mxCell>
                <mxCell id="Wvpoc2jIu2e2FaNdJkdb-28" value="" style="endArrow=classic;html=1;rounded=0;" parent="1" source="Wvpoc2jIu2e2FaNdJkdb-4" target="Wvpoc2jIu2e2FaNdJkdb-27" edge="1">
                    <mxGeometry width="50" height="50" relative="1" as="geometry">
                        <mxPoint x="370" y="153.52941176470586" as="sourcePoint"/>
                        <mxPoint x="-10" y="207.17647058823536" as="targetPoint"/>
                    </mxGeometry>
                </mxCell>
                <mxCell id="Wvpoc2jIu2e2FaNdJkdb-29" value="&lt;div&gt;second: int := 1;&lt;/div&gt;" style="text;html=1;align=center;verticalAlign=middle;resizable=0;points=[];autosize=1;strokeColor=none;fillColor=none;" parent="1" vertex="1">
                    <mxGeometry x="45" y="170" width="100" height="20" as="geometry"/>
                </mxCell>
                <mxCell id="Wvpoc2jIu2e2FaNdJkdb-30" value="" style="endArrow=classic;html=1;rounded=0;" parent="1" source="Wvpoc2jIu2e2FaNdJkdb-5" target="Wvpoc2jIu2e2FaNdJkdb-29" edge="1">
                    <mxGeometry width="50" height="50" relative="1" as="geometry">
                        <mxPoint x="380" y="163.52941176470586" as="sourcePoint"/>
                        <mxPoint y="217.17647058823536" as="targetPoint"/>
                    </mxGeometry>
                </mxCell>
                <mxCell id="Wvpoc2jIu2e2FaNdJkdb-31" value="y: int;" style="text;html=1;align=center;verticalAlign=middle;resizable=0;points=[];autosize=1;strokeColor=none;fillColor=none;" parent="1" vertex="1">
                    <mxGeometry x="195" y="170" width="40" height="20" as="geometry"/>
                </mxCell>
                <mxCell id="Wvpoc2jIu2e2FaNdJkdb-32" value="" style="endArrow=classic;html=1;rounded=0;" parent="1" source="Wvpoc2jIu2e2FaNdJkdb-6" target="Wvpoc2jIu2e2FaNdJkdb-31" edge="1">
                    <mxGeometry width="50" height="50" relative="1" as="geometry">
                        <mxPoint x="390" y="173.52941176470586" as="sourcePoint"/>
                        <mxPoint x="10" y="227.17647058823536" as="targetPoint"/>
                    </mxGeometry>
                </mxCell>
                <mxCell id="Wvpoc2jIu2e2FaNdJkdb-33" value="first;" style="text;html=1;align=center;verticalAlign=middle;resizable=0;points=[];autosize=1;strokeColor=none;fillColor=none;" parent="1" vertex="1">
                    <mxGeometry x="320" y="170" width="40" height="20" as="geometry"/>
                </mxCell>
                <mxCell id="Wvpoc2jIu2e2FaNdJkdb-34" value="" style="endArrow=classic;html=1;rounded=0;" parent="1" source="Wvpoc2jIu2e2FaNdJkdb-7" target="Wvpoc2jIu2e2FaNdJkdb-33" edge="1">
                    <mxGeometry width="50" height="50" relative="1" as="geometry">
                        <mxPoint x="400" y="183.52941176470586" as="sourcePoint"/>
                        <mxPoint x="20" y="237.17647058823536" as="targetPoint"/>
                    </mxGeometry>
                </mxCell>
                <mxCell id="Wvpoc2jIu2e2FaNdJkdb-35" value="&quot;%n&quot;;" style="text;html=1;align=center;verticalAlign=middle;resizable=0;points=[];autosize=1;strokeColor=none;fillColor=none;" parent="1" vertex="1">
                    <mxGeometry x="440" y="170" width="40" height="20" as="geometry"/>
                </mxCell>
                <mxCell id="Wvpoc2jIu2e2FaNdJkdb-36" value="" style="endArrow=classic;html=1;rounded=0;" parent="1" source="Wvpoc2jIu2e2FaNdJkdb-8" target="Wvpoc2jIu2e2FaNdJkdb-35" edge="1">
                    <mxGeometry width="50" height="50" relative="1" as="geometry">
                        <mxPoint x="410" y="193.52941176470586" as="sourcePoint"/>
                        <mxPoint x="30" y="247.17647058823536" as="targetPoint"/>
                    </mxGeometry>
                </mxCell>
                <mxCell id="Wvpoc2jIu2e2FaNdJkdb-37" value="x in 0..count-1 do" style="text;html=1;align=center;verticalAlign=middle;resizable=0;points=[];autosize=1;strokeColor=none;fillColor=none;" parent="1" vertex="1">
                    <mxGeometry x="520" y="170" width="110" height="20" as="geometry"/>
                </mxCell>
                <mxCell id="Wvpoc2jIu2e2FaNdJkdb-38" value="" style="endArrow=classic;html=1;rounded=0;" parent="1" source="Wvpoc2jIu2e2FaNdJkdb-9" target="Wvpoc2jIu2e2FaNdJkdb-37" edge="1">
                    <mxGeometry width="50" height="50" relative="1" as="geometry">
                        <mxPoint x="420" y="203.52941176470586" as="sourcePoint"/>
                        <mxPoint x="40" y="257.17647058823536" as="targetPoint"/>
                    </mxGeometry>
                </mxCell>
                <mxCell id="Wvpoc2jIu2e2FaNdJkdb-39" value="&lt;div&gt;stmtList&lt;/div&gt;" style="text;html=1;align=center;verticalAlign=middle;resizable=0;points=[];autosize=1;strokeColor=none;fillColor=none;" parent="1" vertex="1">
                    <mxGeometry x="670" y="170" width="60" height="20" as="geometry"/>
                </mxCell>
                <mxCell id="Wvpoc2jIu2e2FaNdJkdb-40" value="" style="endArrow=classic;html=1;rounded=0;" parent="1" source="Wvpoc2jIu2e2FaNdJkdb-9" target="Wvpoc2jIu2e2FaNdJkdb-39" edge="1">
                    <mxGeometry width="50" height="50" relative="1" as="geometry">
                        <mxPoint x="430" y="213.52941176470586" as="sourcePoint"/>
                        <mxPoint x="50" y="267.17647058823536" as="targetPoint"/>
                    </mxGeometry>
                </mxCell>
                <mxCell id="Wvpoc2jIu2e2FaNdJkdb-41" value="print" style="text;html=1;align=center;verticalAlign=middle;resizable=0;points=[];autosize=1;strokeColor=none;fillColor=none;" parent="1" vertex="1">
                    <mxGeometry x="680" y="250" width="40" height="20" as="geometry"/>
                </mxCell>
                <mxCell id="Wvpoc2jIu2e2FaNdJkdb-42" value="print" style="text;html=1;align=center;verticalAlign=middle;resizable=0;points=[];autosize=1;strokeColor=none;fillColor=none;" parent="1" vertex="1">
                    <mxGeometry x="800" y="250" width="40" height="20" as="geometry"/>
                </mxCell>
                <mxCell id="Wvpoc2jIu2e2FaNdJkdb-43" value="assign" style="text;html=1;align=center;verticalAlign=middle;resizable=0;points=[];autosize=1;strokeColor=none;fillColor=none;" parent="1" vertex="1">
                    <mxGeometry x="920" y="250" width="50" height="20" as="geometry"/>
                </mxCell>
                <mxCell id="Wvpoc2jIu2e2FaNdJkdb-44" value="assign" style="text;html=1;align=center;verticalAlign=middle;resizable=0;points=[];autosize=1;strokeColor=none;fillColor=none;" parent="1" vertex="1">
                    <mxGeometry x="1115" y="250" width="50" height="20" as="geometry"/>
                </mxCell>
                <mxCell id="Wvpoc2jIu2e2FaNdJkdb-45" value="assign" style="text;html=1;align=center;verticalAlign=middle;resizable=0;points=[];autosize=1;strokeColor=none;fillColor=none;" parent="1" vertex="1">
                    <mxGeometry x="1430" y="250" width="50" height="20" as="geometry"/>
                </mxCell>
                <mxCell id="Wvpoc2jIu2e2FaNdJkdb-46" value="" style="endArrow=classic;html=1;rounded=0;" parent="1" source="Wvpoc2jIu2e2FaNdJkdb-39" target="Wvpoc2jIu2e2FaNdJkdb-41" edge="1">
                    <mxGeometry width="50" height="50" relative="1" as="geometry">
                        <mxPoint x="440" y="223.52941176470586" as="sourcePoint"/>
                        <mxPoint x="60" y="277.17647058823536" as="targetPoint"/>
                    </mxGeometry>
                </mxCell>
                <mxCell id="Wvpoc2jIu2e2FaNdJkdb-47" value="" style="endArrow=classic;html=1;rounded=0;" parent="1" source="Wvpoc2jIu2e2FaNdJkdb-39" target="Wvpoc2jIu2e2FaNdJkdb-42" edge="1">
                    <mxGeometry width="50" height="50" relative="1" as="geometry">
                        <mxPoint x="710" y="200" as="sourcePoint"/>
                        <mxPoint x="710" y="260" as="targetPoint"/>
                    </mxGeometry>
                </mxCell>
                <mxCell id="Wvpoc2jIu2e2FaNdJkdb-48" value="" style="endArrow=classic;html=1;rounded=0;" parent="1" source="Wvpoc2jIu2e2FaNdJkdb-39" target="Wvpoc2jIu2e2FaNdJkdb-43" edge="1">
                    <mxGeometry width="50" height="50" relative="1" as="geometry">
                        <mxPoint x="720" y="210" as="sourcePoint"/>
                        <mxPoint x="720" y="270" as="targetPoint"/>
                    </mxGeometry>
                </mxCell>
                <mxCell id="Wvpoc2jIu2e2FaNdJkdb-49" value="" style="endArrow=classic;html=1;rounded=0;" parent="1" source="Wvpoc2jIu2e2FaNdJkdb-39" target="Wvpoc2jIu2e2FaNdJkdb-44" edge="1">
                    <mxGeometry width="50" height="50" relative="1" as="geometry">
                        <mxPoint x="730" y="220" as="sourcePoint"/>
                        <mxPoint x="730" y="280" as="targetPoint"/>
                    </mxGeometry>
                </mxCell>
                <mxCell id="Wvpoc2jIu2e2FaNdJkdb-50" value="" style="endArrow=classic;html=1;rounded=0;" parent="1" source="Wvpoc2jIu2e2FaNdJkdb-39" target="Wvpoc2jIu2e2FaNdJkdb-45" edge="1">
                    <mxGeometry width="50" height="50" relative="1" as="geometry">
                        <mxPoint x="740" y="230" as="sourcePoint"/>
                        <mxPoint x="740" y="290" as="targetPoint"/>
                    </mxGeometry>
                </mxCell>
                <mxCell id="Wvpoc2jIu2e2FaNdJkdb-51" value="second;" style="text;html=1;align=center;verticalAlign=middle;resizable=0;points=[];autosize=1;strokeColor=none;fillColor=none;" parent="1" vertex="1">
                    <mxGeometry x="670" y="330" width="60" height="20" as="geometry"/>
                </mxCell>
                <mxCell id="Wvpoc2jIu2e2FaNdJkdb-52" value="&quot;%n&quot;;" style="text;html=1;align=center;verticalAlign=middle;resizable=0;points=[];autosize=1;strokeColor=none;fillColor=none;" parent="1" vertex="1">
                    <mxGeometry x="800" y="330" width="40" height="20" as="geometry"/>
                </mxCell>
                <mxCell id="Wvpoc2jIu2e2FaNdJkdb-55" value="first" style="text;html=1;align=center;verticalAlign=middle;resizable=0;points=[];autosize=1;strokeColor=none;fillColor=none;" parent="1" vertex="1">
                    <mxGeometry x="1440" y="330" width="30" height="20" as="geometry"/>
                </mxCell>
                <mxCell id="Wvpoc2jIu2e2FaNdJkdb-56" value="" style="endArrow=classic;html=1;rounded=0;" parent="1" source="Wvpoc2jIu2e2FaNdJkdb-41" target="Wvpoc2jIu2e2FaNdJkdb-51" edge="1">
                    <mxGeometry width="50" height="50" relative="1" as="geometry">
                        <mxPoint x="700" y="260" as="sourcePoint"/>
                        <mxPoint x="710" y="260" as="targetPoint"/>
                    </mxGeometry>
                </mxCell>
                <mxCell id="Wvpoc2jIu2e2FaNdJkdb-57" value="" style="endArrow=classic;html=1;rounded=0;" parent="1" source="Wvpoc2jIu2e2FaNdJkdb-42" target="Wvpoc2jIu2e2FaNdJkdb-52" edge="1">
                    <mxGeometry width="50" height="50" relative="1" as="geometry">
                        <mxPoint x="720" y="210" as="sourcePoint"/>
                        <mxPoint x="720" y="270" as="targetPoint"/>
                    </mxGeometry>
                </mxCell>
                <mxCell id="Wvpoc2jIu2e2FaNdJkdb-58" value="" style="endArrow=classic;html=1;rounded=0;" parent="1" source="Wvpoc2jIu2e2FaNdJkdb-43" target="2" edge="1">
                    <mxGeometry width="50" height="50" relative="1" as="geometry">
                        <mxPoint x="730" y="220" as="sourcePoint"/>
                        <mxPoint x="945" y="330" as="targetPoint"/>
                    </mxGeometry>
                </mxCell>
                <mxCell id="Wvpoc2jIu2e2FaNdJkdb-59" value="" style="endArrow=classic;html=1;rounded=0;" parent="1" source="Wvpoc2jIu2e2FaNdJkdb-44" target="5" edge="1">
                    <mxGeometry width="50" height="50" relative="1" as="geometry">
                        <mxPoint x="740" y="230" as="sourcePoint"/>
                        <mxPoint x="1065" y="330" as="targetPoint"/>
                    </mxGeometry>
                </mxCell>
                <mxCell id="Wvpoc2jIu2e2FaNdJkdb-60" value="" style="endArrow=classic;html=1;rounded=0;" parent="1" source="Wvpoc2jIu2e2FaNdJkdb-45" target="Wvpoc2jIu2e2FaNdJkdb-55" edge="1">
                    <mxGeometry width="50" height="50" relative="1" as="geometry">
                        <mxPoint x="750" y="240" as="sourcePoint"/>
                        <mxPoint x="750" y="300" as="targetPoint"/>
                    </mxGeometry>
                </mxCell>
                <mxCell id="Wvpoc2jIu2e2FaNdJkdb-61" value="end for;" style="text;html=1;align=center;verticalAlign=middle;resizable=0;points=[];autosize=1;strokeColor=none;fillColor=none;" parent="1" vertex="1">
                    <mxGeometry x="1590" y="170" width="60" height="20" as="geometry"/>
                </mxCell>
                <mxCell id="Wvpoc2jIu2e2FaNdJkdb-62" value="" style="endArrow=classic;html=1;rounded=0;" parent="1" source="Wvpoc2jIu2e2FaNdJkdb-9" target="Wvpoc2jIu2e2FaNdJkdb-61" edge="1">
                    <mxGeometry width="50" height="50" relative="1" as="geometry">
                        <mxPoint x="600" y="119.59999999999991" as="sourcePoint"/>
                        <mxPoint x="694.375" y="180" as="targetPoint"/>
                    </mxGeometry>
                </mxCell>
                <mxCell id="Wvpoc2jIu2e2FaNdJkdb-63" value="(first = second);" style="text;html=1;align=center;verticalAlign=middle;resizable=0;points=[];autosize=1;strokeColor=none;fillColor=none;" parent="1" vertex="1">
                    <mxGeometry x="1695" y="170" width="100" height="20" as="geometry"/>
                </mxCell>
                <mxCell id="Wvpoc2jIu2e2FaNdJkdb-64" value="" style="endArrow=classic;html=1;rounded=0;" parent="1" source="Wvpoc2jIu2e2FaNdJkdb-10" target="Wvpoc2jIu2e2FaNdJkdb-63" edge="1">
                    <mxGeometry width="50" height="50" relative="1" as="geometry">
                        <mxPoint x="610" y="129.5999999999999" as="sourcePoint"/>
                        <mxPoint x="704.375" y="190" as="targetPoint"/>
                    </mxGeometry>
                </mxCell>
                <mxCell id="2" value="y" style="text;html=1;align=center;verticalAlign=middle;resizable=0;points=[];autosize=1;strokeColor=none;fillColor=none;" vertex="1" parent="1">
                    <mxGeometry x="935" y="330" width="20" height="20" as="geometry"/>
                </mxCell>
                <mxCell id="3" value="second" style="text;html=1;align=center;verticalAlign=middle;resizable=0;points=[];autosize=1;strokeColor=none;fillColor=none;" vertex="1" parent="1">
                    <mxGeometry x="995" y="330" width="50" height="20" as="geometry"/>
                </mxCell>
                <mxCell id="4" value="" style="endArrow=classic;html=1;rounded=0;" edge="1" parent="1" source="Wvpoc2jIu2e2FaNdJkdb-43" target="3">
                    <mxGeometry width="50" height="50" relative="1" as="geometry">
                        <mxPoint x="955" y="280" as="sourcePoint"/>
                        <mxPoint x="955" y="340" as="targetPoint"/>
                    </mxGeometry>
                </mxCell>
                <mxCell id="5" value="second" style="text;html=1;align=center;verticalAlign=middle;resizable=0;points=[];autosize=1;strokeColor=none;fillColor=none;" vertex="1" parent="1">
                    <mxGeometry x="1115" y="330" width="50" height="20" as="geometry"/>
                </mxCell>
                <mxCell id="6" value="expr" style="text;html=1;align=center;verticalAlign=middle;resizable=0;points=[];autosize=1;strokeColor=none;fillColor=none;" vertex="1" parent="1">
                    <mxGeometry x="1200" y="330" width="40" height="20" as="geometry"/>
                </mxCell>
                <mxCell id="7" value="first" style="text;html=1;align=center;verticalAlign=middle;resizable=0;points=[];autosize=1;strokeColor=none;fillColor=none;" vertex="1" parent="1">
                    <mxGeometry x="1205" y="410" width="30" height="20" as="geometry"/>
                </mxCell>
                <mxCell id="8" value="second" style="text;html=1;align=center;verticalAlign=middle;resizable=0;points=[];autosize=1;strokeColor=none;fillColor=none;" vertex="1" parent="1">
                    <mxGeometry x="1355" y="410" width="50" height="20" as="geometry"/>
                </mxCell>
                <mxCell id="9" value="" style="endArrow=classic;html=1;rounded=0;" edge="1" parent="1" source="6" target="7">
                    <mxGeometry width="50" height="50" relative="1" as="geometry">
                        <mxPoint x="965" y="290" as="sourcePoint"/>
                        <mxPoint x="965" y="350" as="targetPoint"/>
                    </mxGeometry>
                </mxCell>
                <mxCell id="10" value="" style="endArrow=classic;html=1;rounded=0;" edge="1" parent="1" source="6" target="8">
                    <mxGeometry width="50" height="50" relative="1" as="geometry">
                        <mxPoint x="975" y="300" as="sourcePoint"/>
                        <mxPoint x="975" y="360" as="targetPoint"/>
                    </mxGeometry>
                </mxCell>
                <mxCell id="11" value="" style="endArrow=classic;html=1;rounded=0;" edge="1" parent="1" source="Wvpoc2jIu2e2FaNdJkdb-44" target="6">
                    <mxGeometry width="50" height="50" relative="1" as="geometry">
                        <mxPoint x="1040" y="400" as="sourcePoint"/>
                        <mxPoint x="985" y="370" as="targetPoint"/>
                    </mxGeometry>
                </mxCell>
                <mxCell id="12" value="y" style="text;html=1;align=center;verticalAlign=middle;resizable=0;points=[];autosize=1;strokeColor=none;fillColor=none;" vertex="1" parent="1">
                    <mxGeometry x="1530" y="330" width="20" height="20" as="geometry"/>
                </mxCell>
                <mxCell id="13" value="" style="endArrow=classic;html=1;rounded=0;" edge="1" parent="1" source="Wvpoc2jIu2e2FaNdJkdb-45" target="12">
                    <mxGeometry width="50" height="50" relative="1" as="geometry">
                        <mxPoint x="995" y="320" as="sourcePoint"/>
                        <mxPoint x="995" y="380" as="targetPoint"/>
                    </mxGeometry>
                </mxCell>
                <mxCell id="14" value="+" style="text;html=1;align=center;verticalAlign=middle;resizable=0;points=[];autosize=1;strokeColor=none;fillColor=none;" vertex="1" parent="1">
                    <mxGeometry x="1290" y="410" width="20" height="20" as="geometry"/>
                </mxCell>
                <mxCell id="15" value="" style="endArrow=classic;html=1;rounded=0;" edge="1" parent="1" source="6" target="14">
                    <mxGeometry width="50" height="50" relative="1" as="geometry">
                        <mxPoint x="1250" y="360" as="sourcePoint"/>
                        <mxPoint x="1370" y="420" as="targetPoint"/>
                    </mxGeometry>
                </mxCell>
            </root>
        </mxGraphModel>
    </diagram>
</mxfile>